<svg
  width="993"
  height="396"
  viewBox="0 0 993 396"
  fill="none"
  xmlns="http://www.w3.org/2000/svg"
>
<g clip-path="url(#clip0_4_13)">
<path
      d="M0 32C0 14.3269 14.3269 0 32 0H210C227.673 0 242 14.3269 242 32V364C242 381.673 227.673 396 210 396H32C14.3269 396 0 381.673 0 364V32Z"
      fill="url(#paint0_linear_4_13)"
    />
<path
      d="M455 32C455 14.3269 440.673 0 423 0H244C226.327 0 212 14.3269 212 32V364C212 381.673 226.327 396 244 396H423C440.673 396 455 381.673 455 364V32Z"
      fill="url(#paint1_linear_4_13)"
    />
<path
      d="M423 198C423 307.352 334.576 396 225.5 396C116.424 396 28 307.352 28 198C28 88.6476 116.424 0 225.5 0C334.576 0 423 88.6476 423 198Z"
      fill="url(#paint2_linear_4_13)"
    />
<path
      d="M541.88 257.68C532.36 257.68 523.96 255.533 516.68 251.24C509.4 246.947 503.66 241.02 499.46 233.46C495.353 225.807 493.3 216.987 493.3 207C493.3 197.013 495.353 188.24 499.46 180.68C503.66 173.027 509.4 167.053 516.68 162.76C523.96 158.467 532.36 156.32 541.88 156.32C551.493 156.32 559.94 158.467 567.22 162.76C574.593 167.053 580.287 173.027 584.3 180.68C588.407 188.24 590.46 197.013 590.46 207C590.46 216.987 588.407 225.807 584.3 233.46C580.287 241.02 574.593 246.947 567.22 251.24C559.94 255.533 551.493 257.68 541.88 257.68ZM541.88 240.04C547.76 240.04 552.847 238.687 557.14 235.98C561.433 233.273 564.747 229.493 567.08 224.64C569.413 219.693 570.58 213.813 570.58 207C570.58 200.187 569.413 194.353 567.08 189.5C564.747 184.553 561.433 180.727 557.14 178.02C552.847 175.313 547.76 173.96 541.88 173.96C536.093 173.96 531.053 175.313 526.76 178.02C522.56 180.727 519.247 184.553 516.82 189.5C514.487 194.353 513.32 200.187 513.32 207C513.32 213.813 514.487 219.693 516.82 224.64C519.247 229.493 522.56 233.273 526.76 235.98C531.053 238.687 536.093 240.04 541.88 240.04ZM606.442 256V158H643.542C651.475 158 658.009 159.353 663.142 162.06C668.369 164.767 672.242 168.407 674.762 172.98C677.375 177.46 678.682 182.5 678.682 188.1C678.682 193.327 677.422 198.227 674.902 202.8C672.475 207.373 668.649 211.06 663.422 213.86C658.195 216.567 651.522 217.92 643.402 217.92H626.042V256H606.442ZM657.122 256L637.102 213.02H658.382L679.522 256H657.122ZM626.042 203.64H642.422C647.929 203.64 651.989 202.287 654.602 199.58C657.309 196.873 658.662 193.28 658.662 188.8C658.662 184.413 657.355 180.913 654.742 178.3C652.129 175.687 647.975 174.38 642.282 174.38H626.042V203.64ZM695.172 256V158H735.912C742.726 158 748.466 159.073 753.132 161.22C757.799 163.367 761.346 166.353 763.772 170.18C766.199 173.913 767.412 178.3 767.412 183.34C767.412 188.193 766.339 192.3 764.192 195.66C762.046 199.02 759.199 201.633 755.652 203.5C752.199 205.273 748.372 206.3 744.172 206.58L746.412 205.04C750.892 205.227 754.859 206.44 758.312 208.68C761.859 210.92 764.612 213.86 766.572 217.5C768.626 221.047 769.652 224.967 769.652 229.26C769.652 234.487 768.392 239.153 765.872 243.26C763.352 247.273 759.666 250.4 754.812 252.64C750.052 254.88 744.219 256 737.312 256H695.172ZM714.772 240.04H734.232C739.179 240.04 743.006 238.92 745.712 236.68C748.419 234.347 749.772 231.08 749.772 226.88C749.772 222.68 748.372 219.367 745.572 216.94C742.772 214.513 738.899 213.3 733.952 213.3H714.772V240.04ZM714.772 198.74H732.692C737.452 198.74 741.092 197.667 743.612 195.52C746.132 193.28 747.392 190.153 747.392 186.14C747.392 182.22 746.132 179.187 743.612 177.04C741.092 174.8 737.406 173.68 732.552 173.68H714.772V198.74Z"
      fill="url(#paint3_linear_4_13)"
    />
<path
      d="M517.94 384L490.78 286H497.5L521.58 375.88L548.46 286H555.74L582.06 375.88L606.42 286H613.14L585.7 384H578.42L551.96 295.38L524.94 384H517.94ZM611.659 384L647.639 286H654.359L689.919 384H683.199L650.859 294.12L618.239 384H611.659ZM626.919 352.92L629.019 347.6H672.699L674.799 352.92H626.919ZM706.686 384V286H712.986V378.82H760.586V384H706.686ZM776.96 384V286H783.26V378.82H830.86V384H776.96ZM847.233 384V286H904.773V291.32H853.533V332.2H900.573V337.66H853.533V378.68H904.773V384H847.233ZM946.896 384V291.32H917.216V286H982.736V291.32H953.196V384H946.896Z"
      fill="white"
      fill-opacity="0.56"
    />
</g>
<defs>
<linearGradient
      id="paint0_linear_4_13"
      x1="5.9144e-09"
      y1="198"
      x2="325.639"
      y2="198.243"
      gradientUnits="userSpaceOnUse"
    >
<stop stop-color="#350D62" />
<stop offset="1" stop-opacity="0" />
</linearGradient>
<linearGradient
      id="paint1_linear_4_13"
      x1="455"
      y1="198"
      x2="128.016"
      y2="198.245"
      gradientUnits="userSpaceOnUse"
    >
<stop stop-color="#350D62" />
<stop offset="1" stop-opacity="0" />
</linearGradient>
<linearGradient
      id="paint2_linear_4_13"
      x1="311.718"
      y1="24.3744"
      x2="149.869"
      y2="376.738"
      gradientUnits="userSpaceOnUse"
    >
<stop stop-color="#7700FF" />
<stop offset="1" stop-color="#260E34" />
</linearGradient>
<linearGradient
      id="paint3_linear_4_13"
      x1="646.5"
      y1="153.5"
      x2="646.5"
      y2="256"
      gradientUnits="userSpaceOnUse"
    >
<stop stop-color="white" />
<stop offset="1" stop-color="#999999" />
</linearGradient>
<clipPath id="clip0_4_13">
<rect width="993" height="396" fill="white" />
</clipPath>
</defs>
</svg>
