<svg width="991" height="166" viewBox="0 0 991 166" fill="none" xmlns="http://www.w3.org/2000/svg">
<g clip-path="url(#clip0_5_40)">
<path d="M0 15C0 6.71572 6.71573 0 15 0H87C95.2843 0 102 6.71573 102 15V151C102 159.284 95.2843 166 87 166H15C6.71573 166 0 159.284 0 151V15Z" fill="url(#paint0_linear_5_40)"/>
<path d="M191 15C191 6.71572 184.284 0 176 0H104C95.7157 0 89 6.71573 89 15V151C89 159.284 95.7157 166 104 166H176C184.284 166 191 159.284 191 151V15Z" fill="url(#paint1_linear_5_40)"/>
<path d="M177 83C177 128.84 140.287 166 95 166C49.7127 166 13 128.84 13 83C13 37.1604 49.7127 0 95 0C140.287 0 177 37.1604 177 83Z" fill="url(#paint2_linear_5_40)"/>
<path d="M264.88 132.68C255.36 132.68 246.96 130.533 239.68 126.24C232.4 121.947 226.66 116.02 222.46 108.46C218.353 100.807 216.3 91.9867 216.3 82C216.3 72.0133 218.353 63.24 222.46 55.68C226.66 48.0267 232.4 42.0533 239.68 37.76C246.96 33.4667 255.36 31.32 264.88 31.32C274.493 31.32 282.94 33.4667 290.22 37.76C297.593 42.0533 303.287 48.0267 307.3 55.68C311.407 63.24 313.46 72.0133 313.46 82C313.46 91.9867 311.407 100.807 307.3 108.46C303.287 116.02 297.593 121.947 290.22 126.24C282.94 130.533 274.493 132.68 264.88 132.68ZM264.88 115.04C270.76 115.04 275.847 113.687 280.14 110.98C284.433 108.273 287.747 104.493 290.08 99.64C292.413 94.6933 293.58 88.8133 293.58 82C293.58 75.1867 292.413 69.3533 290.08 64.5C287.747 59.5533 284.433 55.7267 280.14 53.02C275.847 50.3133 270.76 48.96 264.88 48.96C259.093 48.96 254.053 50.3133 249.76 53.02C245.56 55.7267 242.247 59.5533 239.82 64.5C237.487 69.3533 236.32 75.1867 236.32 82C236.32 88.8133 237.487 94.6933 239.82 99.64C242.247 104.493 245.56 108.273 249.76 110.98C254.053 113.687 259.093 115.04 264.88 115.04ZM329.442 131V33H366.542C374.475 33 381.009 34.3533 386.142 37.06C391.369 39.7667 395.242 43.4067 397.762 47.98C400.375 52.46 401.682 57.5 401.682 63.1C401.682 68.3267 400.422 73.2267 397.902 77.8C395.475 82.3733 391.649 86.06 386.422 88.86C381.195 91.5667 374.522 92.92 366.402 92.92H349.042V131H329.442ZM380.122 131L360.102 88.02H381.382L402.522 131H380.122ZM349.042 78.64H365.422C370.929 78.64 374.989 77.2867 377.602 74.58C380.309 71.8733 381.662 68.28 381.662 63.8C381.662 59.4133 380.355 55.9133 377.742 53.3C375.129 50.6867 370.975 49.38 365.282 49.38H349.042V78.64ZM418.172 131V33H458.912C465.726 33 471.466 34.0733 476.132 36.22C480.799 38.3667 484.346 41.3533 486.772 45.18C489.199 48.9133 490.412 53.3 490.412 58.34C490.412 63.1933 489.339 67.3 487.192 70.66C485.046 74.02 482.199 76.6333 478.652 78.5C475.199 80.2733 471.372 81.3 467.172 81.58L469.412 80.04C473.892 80.2267 477.859 81.44 481.312 83.68C484.859 85.92 487.612 88.86 489.572 92.5C491.626 96.0467 492.652 99.9667 492.652 104.26C492.652 109.487 491.392 114.153 488.872 118.26C486.352 122.273 482.666 125.4 477.812 127.64C473.052 129.88 467.219 131 460.312 131H418.172ZM437.772 115.04H457.232C462.179 115.04 466.006 113.92 468.712 111.68C471.419 109.347 472.772 106.08 472.772 101.88C472.772 97.68 471.372 94.3667 468.572 91.94C465.772 89.5133 461.899 88.3 456.952 88.3H437.772V115.04ZM437.772 73.74H455.692C460.452 73.74 464.092 72.6667 466.612 70.52C469.132 68.28 470.392 65.1533 470.392 61.14C470.392 57.22 469.132 54.1867 466.612 52.04C464.092 49.8 460.406 48.68 455.552 48.68H437.772V73.74Z" fill="url(#paint3_linear_5_40)"/>
<path d="M526.94 131L499.78 33H506.5L530.58 122.88L557.46 33H564.74L591.06 122.88L615.42 33H622.14L594.7 131H587.42L560.96 42.38L533.94 131H526.94ZM620.659 131L656.639 33H663.359L698.919 131H692.199L659.859 41.12L627.239 131H620.659ZM635.919 99.92L638.019 94.6H681.699L683.799 99.92H635.919ZM715.686 131V33H721.986V125.82H769.586V131H715.686ZM785.96 131V33H792.26V125.82H839.86V131H785.96ZM856.233 131V33H913.773V38.32H862.533V79.2H909.573V84.66H862.533V125.68H913.773V131H856.233ZM955.896 131V38.32H926.216V33H991.736V38.32H962.196V131H955.896Z" fill="white" fill-opacity="0.56"/>
</g>
<defs>
<linearGradient id="paint0_linear_5_40" x1="2.49285e-09" y1="83" x2="137.253" y2="83.1028" gradientUnits="userSpaceOnUse">
<stop stop-color="#350D62"/>
<stop offset="1" stop-opacity="0"/>
</linearGradient>
<linearGradient id="paint1_linear_5_40" x1="191" y1="83" x2="53.7473" y2="83.1028" gradientUnits="userSpaceOnUse">
<stop stop-color="#350D62"/>
<stop offset="1" stop-opacity="0"/>
</linearGradient>
<linearGradient id="paint2_linear_5_40" x1="130.797" y1="10.2175" x2="62.5273" y2="157.429" gradientUnits="userSpaceOnUse">
<stop stop-color="#7700FF"/>
<stop offset="1" stop-color="#260E34"/>
</linearGradient>
<linearGradient id="paint3_linear_5_40" x1="369.5" y1="28.5" x2="369.5" y2="131" gradientUnits="userSpaceOnUse">
<stop stop-color="white"/>
<stop offset="1" stop-color="#999999"/>
</linearGradient>
<clipPath id="clip0_5_40">
<rect width="991" height="166" fill="white"/>
</clipPath>
</defs>
</svg>
